<svg xmlns="http://www.w3.org/2000/svg" xmlns:xlink="http://www.w3.org/1999/xlink" width="1920" zoomAndPan="magnify" viewBox="0 0 1440 809.999993" height="1080" preserveAspectRatio="xMidYMid meet" version="1.2"><defs><filter x="0%" y="0%" width="100%" filterUnits="objectBoundingBox" id="60e7e10da2" height="100%"><feColorMatrix values="0 0 0 0 1 0 0 0 0 1 0 0 0 0 1 0 0 0 1 0" type="matrix" in="SourceGraphic"/></filter><clipPath id="7b54a5ccfb"><path d="M 0.609375 0 L 312 0 L 312 324 L 0.609375 324 Z M 0.609375 0 "/></clipPath><clipPath id="d0b322f6dd"><rect x="0" width="312" y="0" height="325"/></clipPath><clipPath id="1ffb067a3f"><path d="M 0 1 L 311.601562 1 L 311.601562 325 L 0 325 Z M 0 1 "/></clipPath><clipPath id="1b64cb5df5"><rect x="0" width="312" y="0" height="325"/></clipPath></defs><g id="a2a7137163"><rect x="0" width="1440" y="0" height="809.999993" style="fill:#ffffff;fill-opacity:1;stroke:none;"/><rect x="0" width="1440" y="0" height="809.999993" style="fill:#edebfb;fill-opacity:1;stroke:none;"/><path style="fill:none;stroke-width:4;stroke-linecap:butt;stroke-linejoin:miter;stroke:#7ab282;stroke-opacity:1;stroke-miterlimit:4;" d="M -0.0000700954 1.997895 L 1319.692705 1.997895 " transform="matrix(-0.75,0,0,-0.75,989.765572,719.474984)"/><path style="fill:none;stroke-width:4;stroke-linecap:butt;stroke-linejoin:miter;stroke:#5c5470;stroke-opacity:1;stroke-miterlimit:4;" d="M -0.00234411 2.002519 L 1282.278952 2.002519 " transform="matrix(-0.749845,0,0,-0.749845,1439.99043,95.025015)"/><path style="fill:none;stroke-width:4;stroke-linecap:butt;stroke-linejoin:miter;stroke:#7ab282;stroke-opacity:1;stroke-miterlimit:4;" d="M -0.00166127 2.002254 L 493.243154 2.002254 " transform="matrix(0,0.749644,-0.749644,0,100.743164,440.071558)"/><path style="fill:none;stroke-width:4;stroke-linecap:butt;stroke-linejoin:miter;stroke:#5c5470;stroke-opacity:1;stroke-miterlimit:4;" d="M 0.00161188 1.997729 L 493.241217 1.997729 " transform="matrix(0,0.749644,-0.749644,0,1342.251491,0.00269792)"/><g mask="url(#dd1e718a00)" transform="matrix(1,0,0,1,1128,0.000000000000039746)"><g clip-path="url(#d0b322f6dd)"><g clip-rule="nonzero" clip-path="url(#7b54a5ccfb)"><path style=" stroke:none;fill-rule:nonzero;fill:#2f3e46;fill-opacity:1;" d="M 424.859375 2.15625 L 424.859375 111.773438 C 424.859375 228.796875 329.699219 323.890625 212.730469 323.890625 C 95.761719 323.890625 0.609375 228.742188 0.609375 111.773438 L 0.609375 2.15625 C 0.609375 1.882812 0.664062 1.621094 0.769531 1.367188 C 0.875 1.113281 1.023438 0.886719 1.21875 0.695312 C 1.410156 0.5 1.636719 0.351562 1.890625 0.246094 C 2.144531 0.140625 2.40625 0.0859375 2.683594 0.0859375 C 2.957031 0.0859375 3.222656 0.140625 3.476562 0.246094 C 3.730469 0.351562 3.953125 0.5 4.148438 0.695312 C 4.339844 0.886719 4.492188 1.113281 4.597656 1.367188 C 4.699219 1.621094 4.753906 1.882812 4.753906 2.15625 L 4.753906 111.773438 C 4.753906 226.453125 98.050781 319.75 212.730469 319.75 C 327.410156 319.75 420.714844 226.453125 420.714844 111.773438 L 420.714844 2.15625 C 420.714844 1.882812 420.769531 1.621094 420.871094 1.367188 C 420.976562 1.113281 421.128906 0.886719 421.320312 0.695312 C 421.515625 0.5 421.738281 0.351562 421.992188 0.246094 C 422.246094 0.140625 422.511719 0.0859375 422.785156 0.0859375 C 423.0625 0.0859375 423.324219 0.140625 423.578125 0.246094 C 423.832031 0.351562 424.054688 0.5 424.25 0.695312 C 424.445312 0.886719 424.59375 1.113281 424.699219 1.367188 C 424.804688 1.621094 424.855469 1.882812 424.859375 2.15625 Z M 212.730469 291.085938 C 311.9375 291.085938 392.652344 210.371094 392.652344 111.164062 L 392.652344 2.25 C 392.652344 1.976562 392.597656 1.710938 392.492188 1.457031 C 392.386719 1.203125 392.238281 0.980469 392.042969 0.785156 C 391.851562 0.59375 391.625 0.441406 391.371094 0.335938 C 391.117188 0.234375 390.855469 0.179688 390.578125 0.179688 C 390.304688 0.179688 390.039062 0.234375 389.789062 0.335938 C 389.535156 0.441406 389.308594 0.59375 389.113281 0.785156 C 388.921875 0.980469 388.769531 1.203125 388.667969 1.457031 C 388.5625 1.710938 388.507812 1.976562 388.507812 2.25 L 388.507812 111.183594 C 388.507812 208.113281 309.660156 286.964844 212.730469 286.964844 C 115.800781 286.964844 36.960938 208.113281 36.960938 111.183594 L 36.960938 2.25 C 36.960938 1.976562 36.90625 1.710938 36.800781 1.457031 C 36.699219 1.203125 36.546875 0.980469 36.351562 0.785156 C 36.160156 0.59375 35.933594 0.441406 35.679688 0.335938 C 35.429688 0.234375 35.164062 0.179688 34.890625 0.179688 C 34.613281 0.179688 34.351562 0.234375 34.097656 0.335938 C 33.84375 0.441406 33.617188 0.59375 33.425781 0.785156 C 33.230469 0.980469 33.082031 1.203125 32.976562 1.457031 C 32.871094 1.710938 32.816406 1.976562 32.816406 2.25 L 32.816406 111.183594 C 32.816406 210.394531 113.488281 291.085938 212.730469 291.085938 Z M 212.730469 258.296875 C 294.1875 258.296875 360.453125 192.023438 360.453125 110.582031 L 360.453125 2.355469 C 360.453125 2.082031 360.402344 1.816406 360.296875 1.5625 C 360.191406 1.308594 360.042969 1.085938 359.847656 0.890625 C 359.652344 0.695312 359.429688 0.546875 359.175781 0.441406 C 358.921875 0.335938 358.65625 0.285156 358.382812 0.285156 C 358.109375 0.285156 357.84375 0.335938 357.589844 0.441406 C 357.335938 0.546875 357.113281 0.695312 356.917969 0.890625 C 356.726562 1.085938 356.574219 1.308594 356.46875 1.5625 C 356.363281 1.816406 356.3125 2.082031 356.3125 2.355469 L 356.3125 110.605469 C 356.3125 189.773438 291.898438 254.175781 212.730469 254.175781 C 133.558594 254.175781 69.15625 189.773438 69.15625 110.605469 L 69.15625 2.355469 C 69.15625 2.082031 69.105469 1.816406 69 1.5625 C 68.894531 1.308594 68.742188 1.085938 68.550781 0.890625 C 68.355469 0.695312 68.132812 0.546875 67.878906 0.441406 C 67.625 0.335938 67.359375 0.285156 67.085938 0.285156 C 66.808594 0.285156 66.546875 0.335938 66.292969 0.441406 C 66.039062 0.546875 65.816406 0.695312 65.621094 0.890625 C 65.425781 1.085938 65.277344 1.308594 65.171875 1.5625 C 65.066406 1.816406 65.015625 2.082031 65.015625 2.355469 L 65.015625 110.605469 C 65.015625 192.050781 131.28125 258.320312 212.730469 258.320312 Z M 212.730469 225.511719 C 214.617188 225.511719 216.507812 225.460938 218.394531 225.367188 C 220.28125 225.273438 222.167969 225.132812 224.046875 224.945312 C 225.925781 224.757812 227.800781 224.523438 229.671875 224.246094 C 231.539062 223.96875 233.402344 223.644531 235.253906 223.273438 C 237.109375 222.902344 238.949219 222.488281 240.785156 222.027344 C 242.617188 221.566406 244.4375 221.0625 246.246094 220.511719 C 248.054688 219.960938 249.847656 219.367188 251.625 218.730469 C 253.40625 218.09375 255.167969 217.410156 256.914062 216.6875 C 258.65625 215.964844 260.382812 215.195312 262.09375 214.386719 C 263.800781 213.578125 265.488281 212.730469 267.152344 211.839844 C 268.820312 210.945312 270.464844 210.015625 272.085938 209.042969 C 273.707031 208.070312 275.300781 207.058594 276.871094 206.011719 C 278.441406 204.960938 279.988281 203.871094 281.503906 202.746094 C 283.023438 201.621094 284.511719 200.457031 285.972656 199.257812 C 287.433594 198.058594 288.863281 196.824219 290.265625 195.554688 C 291.664062 194.289062 293.035156 192.984375 294.371094 191.648438 C 295.707031 190.3125 297.007812 188.945312 298.277344 187.542969 C 299.546875 186.144531 300.78125 184.714844 301.980469 183.253906 C 303.179688 181.792969 304.34375 180.304688 305.46875 178.785156 C 306.59375 177.269531 307.683594 175.722656 308.734375 174.152344 C 309.785156 172.582031 310.796875 170.988281 311.769531 169.367188 C 312.742188 167.746094 313.671875 166.101562 314.566406 164.4375 C 315.457031 162.769531 316.304688 161.082031 317.117188 159.375 C 317.925781 157.667969 318.691406 155.941406 319.414062 154.195312 C 320.140625 152.449219 320.820312 150.6875 321.460938 148.910156 C 322.097656 147.128906 322.691406 145.335938 323.242188 143.527344 C 323.792969 141.722656 324.296875 139.902344 324.757812 138.066406 C 325.21875 136.234375 325.632812 134.390625 326.003906 132.539062 C 326.375 130.6875 326.699219 128.824219 326.980469 126.957031 C 327.257812 125.085938 327.492188 123.210938 327.679688 121.332031 C 327.867188 119.449219 328.007812 117.566406 328.101562 115.679688 C 328.195312 113.792969 328.246094 111.902344 328.25 110.015625 L 328.25 2.449219 C 328.25 2.171875 328.195312 1.910156 328.089844 1.65625 C 327.984375 1.402344 327.835938 1.179688 327.640625 0.984375 C 327.449219 0.789062 327.222656 0.640625 326.96875 0.535156 C 326.714844 0.429688 326.453125 0.378906 326.175781 0.378906 C 325.902344 0.378906 325.636719 0.429688 325.382812 0.535156 C 325.128906 0.640625 324.90625 0.789062 324.710938 0.984375 C 324.519531 1.179688 324.367188 1.402344 324.261719 1.65625 C 324.160156 1.910156 324.105469 2.171875 324.105469 2.449219 L 324.105469 110.015625 C 324.125 111.847656 324.097656 113.679688 324.023438 115.511719 C 323.949219 117.347656 323.832031 119.175781 323.667969 121.003906 C 323.503906 122.828125 323.296875 124.652344 323.042969 126.46875 C 322.789062 128.285156 322.492188 130.09375 322.152344 131.894531 C 321.808594 133.695312 321.421875 135.488281 320.988281 137.269531 C 320.558594 139.054688 320.082031 140.824219 319.566406 142.582031 C 319.046875 144.34375 318.484375 146.085938 317.878906 147.820312 C 317.273438 149.550781 316.628906 151.265625 315.9375 152.964844 C 315.25 154.664062 314.519531 156.34375 313.746094 158.007812 C 312.972656 159.671875 312.160156 161.316406 311.304688 162.9375 C 310.453125 164.5625 309.558594 166.164062 308.625 167.742188 C 307.691406 169.320312 306.722656 170.875 305.710938 172.40625 C 304.703125 173.9375 303.65625 175.441406 302.570312 176.921875 C 301.488281 178.402344 300.367188 179.851562 299.210938 181.277344 C 298.054688 182.699219 296.867188 184.09375 295.640625 185.460938 C 294.417969 186.824219 293.160156 188.160156 291.867188 189.460938 C 290.578125 190.765625 289.257812 192.035156 287.902344 193.273438 C 286.550781 194.511719 285.167969 195.714844 283.753906 196.882812 C 282.339844 198.054688 280.898438 199.1875 279.429688 200.285156 C 277.960938 201.382812 276.46875 202.445312 274.945312 203.46875 C 273.425781 204.496094 271.878906 205.480469 270.308594 206.429688 C 268.738281 207.375 267.148438 208.285156 265.53125 209.15625 C 263.917969 210.023438 262.28125 210.851562 260.625 211.640625 C 258.972656 212.429688 257.296875 213.175781 255.605469 213.882812 C 253.910156 214.589844 252.203125 215.253906 250.476562 215.875 C 248.75 216.496094 247.011719 217.074219 245.257812 217.609375 C 243.503906 218.144531 241.738281 218.636719 239.960938 219.085938 C 238.179688 219.535156 236.394531 219.9375 234.59375 220.296875 C 232.796875 220.65625 230.988281 220.972656 229.175781 221.246094 C 227.363281 221.515625 225.542969 221.742188 223.71875 221.921875 C 221.894531 222.101562 220.066406 222.238281 218.234375 222.328125 C 216.402344 222.417969 214.566406 222.464844 212.734375 222.464844 C 210.898438 222.464844 209.066406 222.417969 207.234375 222.328125 C 205.402344 222.238281 203.574219 222.101562 201.75 221.921875 C 199.925781 221.742188 198.105469 221.515625 196.292969 221.246094 C 194.480469 220.972656 192.671875 220.65625 190.875 220.296875 C 189.074219 219.9375 187.289062 219.535156 185.507812 219.085938 C 183.730469 218.636719 181.964844 218.144531 180.210938 217.609375 C 178.457031 217.074219 176.71875 216.496094 174.992188 215.875 C 173.265625 215.253906 171.558594 214.589844 169.863281 213.882812 C 168.171875 213.175781 166.496094 212.429688 164.839844 211.640625 C 163.1875 210.851562 161.550781 210.023438 159.9375 209.15625 C 158.320312 208.285156 156.730469 207.375 155.160156 206.429688 C 153.589844 205.480469 152.042969 204.496094 150.523438 203.46875 C 149 202.445312 147.507812 201.382812 146.039062 200.285156 C 144.570312 199.1875 143.128906 198.054688 141.714844 196.882812 C 140.300781 195.714844 138.917969 194.511719 137.566406 193.273438 C 136.210938 192.035156 134.890625 190.765625 133.601562 189.460938 C 132.308594 188.160156 131.050781 186.824219 129.828125 185.460938 C 128.601562 184.09375 127.414062 182.699219 126.257812 181.277344 C 125.101562 179.851562 123.980469 178.402344 122.898438 176.921875 C 121.8125 175.441406 120.765625 173.9375 119.757812 172.40625 C 118.746094 170.875 117.777344 169.320312 116.84375 167.742188 C 115.910156 166.164062 115.015625 164.5625 114.164062 162.9375 C 113.308594 161.316406 112.496094 159.671875 111.722656 158.007812 C 110.949219 156.34375 110.21875 154.664062 109.53125 152.964844 C 108.839844 151.265625 108.195312 149.550781 107.589844 147.820312 C 106.984375 146.085938 106.421875 144.34375 105.902344 142.582031 C 105.386719 140.824219 104.910156 139.054688 104.480469 137.269531 C 104.046875 135.488281 103.660156 133.695312 103.316406 131.894531 C 102.976562 130.09375 102.679688 128.285156 102.425781 126.46875 C 102.171875 124.652344 101.964844 122.828125 101.800781 121.003906 C 101.636719 119.175781 101.519531 117.347656 101.445312 115.511719 C 101.371094 113.679688 101.34375 111.847656 101.363281 110.015625 L 101.363281 2.449219 C 101.363281 2.171875 101.308594 1.910156 101.207031 1.65625 C 101.101562 1.402344 100.949219 1.179688 100.757812 0.984375 C 100.5625 0.789062 100.339844 0.640625 100.085938 0.535156 C 99.832031 0.429688 99.566406 0.378906 99.292969 0.378906 C 99.015625 0.378906 98.753906 0.429688 98.5 0.535156 C 98.246094 0.640625 98.019531 0.789062 97.828125 0.984375 C 97.632812 1.179688 97.484375 1.402344 97.378906 1.65625 C 97.273438 1.910156 97.21875 2.171875 97.21875 2.449219 L 97.21875 110.015625 C 97.222656 111.902344 97.269531 113.792969 97.367188 115.679688 C 97.460938 117.566406 97.601562 119.453125 97.789062 121.332031 C 97.976562 123.210938 98.207031 125.085938 98.488281 126.957031 C 98.765625 128.824219 99.089844 130.6875 99.460938 132.539062 C 99.832031 134.394531 100.246094 136.238281 100.707031 138.070312 C 101.167969 139.902344 101.671875 141.722656 102.222656 143.53125 C 102.773438 145.339844 103.367188 147.132812 104.003906 148.914062 C 104.640625 150.691406 105.320312 152.453125 106.046875 154.199219 C 106.769531 155.945312 107.535156 157.671875 108.34375 159.378906 C 109.152344 161.089844 110.003906 162.773438 110.894531 164.441406 C 111.789062 166.109375 112.71875 167.75 113.691406 169.371094 C 114.664062 170.992188 115.675781 172.589844 116.726562 174.160156 C 117.773438 175.730469 118.863281 177.277344 119.988281 178.792969 C 121.117188 180.3125 122.277344 181.800781 123.476562 183.261719 C 124.675781 184.722656 125.910156 186.152344 127.179688 187.554688 C 128.449219 188.953125 129.75 190.320312 131.089844 191.65625 C 132.425781 192.996094 133.792969 194.296875 135.191406 195.566406 C 136.59375 196.835938 138.023438 198.070312 139.484375 199.269531 C 140.945312 200.46875 142.433594 201.632812 143.953125 202.757812 C 145.46875 203.882812 147.011719 204.972656 148.585938 206.023438 C 150.15625 207.074219 151.75 208.085938 153.371094 209.058594 C 154.992188 210.027344 156.636719 210.960938 158.300781 211.851562 C 159.96875 212.746094 161.65625 213.59375 163.363281 214.402344 C 165.070312 215.210938 166.796875 215.980469 168.542969 216.703125 C 170.289062 217.425781 172.050781 218.109375 173.832031 218.746094 C 175.609375 219.382812 177.402344 219.976562 179.210938 220.527344 C 181.019531 221.078125 182.839844 221.582031 184.671875 222.042969 C 186.507812 222.503906 188.347656 222.921875 190.203125 223.289062 C 192.054688 223.660156 193.917969 223.984375 195.785156 224.265625 C 197.65625 224.542969 199.53125 224.777344 201.410156 224.964844 C 203.292969 225.152344 205.175781 225.292969 207.0625 225.386719 C 208.949219 225.480469 210.839844 225.53125 212.730469 225.53125 Z M 212.730469 192.714844 C 214.09375 192.714844 215.453125 192.679688 216.816406 192.609375 C 218.175781 192.542969 219.535156 192.441406 220.890625 192.304688 C 222.25 192.171875 223.601562 192.003906 224.949219 191.800781 C 226.296875 191.601562 227.640625 191.367188 228.976562 191.097656 C 230.3125 190.832031 231.640625 190.53125 232.964844 190.199219 C 234.285156 189.867188 235.597656 189.503906 236.902344 189.105469 C 238.207031 188.710938 239.5 188.28125 240.785156 187.820312 C 242.066406 187.363281 243.339844 186.871094 244.597656 186.347656 C 245.855469 185.828125 247.101562 185.273438 248.332031 184.691406 C 249.566406 184.105469 250.78125 183.492188 251.984375 182.851562 C 253.1875 182.207031 254.371094 181.535156 255.539062 180.835938 C 256.707031 180.132812 257.859375 179.402344 258.992188 178.644531 C 260.125 177.886719 261.238281 177.105469 262.335938 176.292969 C 263.429688 175.480469 264.503906 174.640625 265.558594 173.777344 C 266.609375 172.910156 267.640625 172.019531 268.652344 171.105469 C 269.660156 170.191406 270.648438 169.25 271.613281 168.285156 C 272.578125 167.324219 273.515625 166.335938 274.429688 165.324219 C 275.347656 164.316406 276.238281 163.285156 277.101562 162.230469 C 277.96875 161.175781 278.804688 160.101562 279.617188 159.007812 C 280.429688 157.914062 281.214844 156.800781 281.972656 155.667969 C 282.730469 154.535156 283.460938 153.382812 284.160156 152.214844 C 284.863281 151.042969 285.535156 149.859375 286.175781 148.65625 C 286.820312 147.457031 287.433594 146.238281 288.015625 145.007812 C 288.601562 143.773438 289.152344 142.53125 289.675781 141.269531 C 290.195312 140.011719 290.6875 138.742188 291.148438 137.457031 C 291.609375 136.175781 292.035156 134.882812 292.433594 133.578125 C 292.828125 132.273438 293.195312 130.960938 293.527344 129.636719 C 293.859375 128.316406 294.160156 126.988281 294.425781 125.648438 C 294.691406 124.3125 294.925781 122.972656 295.128906 121.621094 C 295.328125 120.273438 295.496094 118.921875 295.632812 117.566406 C 295.765625 116.210938 295.867188 114.851562 295.9375 113.488281 C 296.003906 112.128906 296.039062 110.765625 296.042969 109.402344 L 296.042969 2.542969 C 296.042969 2.265625 295.988281 2.003906 295.882812 1.75 C 295.777344 1.496094 295.628906 1.269531 295.433594 1.078125 C 295.242188 0.882812 295.015625 0.734375 294.761719 0.628906 C 294.507812 0.523438 294.246094 0.46875 293.96875 0.46875 C 293.695312 0.46875 293.429688 0.523438 293.179688 0.628906 C 292.925781 0.734375 292.699219 0.882812 292.507812 1.078125 C 292.3125 1.269531 292.160156 1.496094 292.058594 1.75 C 291.953125 2.003906 291.898438 2.265625 291.898438 2.542969 L 291.898438 109.421875 C 291.898438 110.71875 291.867188 112.015625 291.804688 113.308594 C 291.742188 114.601562 291.644531 115.894531 291.519531 117.183594 C 291.390625 118.472656 291.234375 119.757812 291.042969 121.039062 C 290.851562 122.320312 290.628906 123.597656 290.378906 124.867188 C 290.125 126.140625 289.839844 127.402344 289.527344 128.660156 C 289.210938 129.917969 288.867188 131.164062 288.488281 132.40625 C 288.113281 133.644531 287.707031 134.875 287.269531 136.09375 C 286.835938 137.316406 286.367188 138.523438 285.871094 139.71875 C 285.375 140.917969 284.851562 142.101562 284.296875 143.273438 C 283.742188 144.445312 283.160156 145.601562 282.550781 146.742188 C 281.941406 147.886719 281.300781 149.015625 280.636719 150.125 C 279.96875 151.238281 279.277344 152.332031 278.558594 153.40625 C 277.835938 154.484375 277.089844 155.542969 276.320312 156.585938 C 275.546875 157.625 274.75 158.648438 273.929688 159.648438 C 273.105469 160.648438 272.261719 161.632812 271.390625 162.589844 C 270.519531 163.550781 269.628906 164.488281 268.710938 165.40625 C 267.792969 166.320312 266.855469 167.214844 265.898438 168.085938 C 264.9375 168.953125 263.957031 169.800781 262.953125 170.621094 C 261.953125 171.445312 260.929688 172.242188 259.890625 173.011719 C 258.851562 173.785156 257.789062 174.53125 256.714844 175.25 C 255.636719 175.972656 254.542969 176.664062 253.429688 177.328125 C 252.320312 177.996094 251.191406 178.632812 250.050781 179.246094 C 248.90625 179.855469 247.75 180.4375 246.578125 180.992188 C 245.40625 181.546875 244.222656 182.070312 243.027344 182.566406 C 241.828125 183.0625 240.621094 183.527344 239.402344 183.964844 C 238.179688 184.402344 236.949219 184.808594 235.710938 185.183594 C 234.472656 185.5625 233.222656 185.90625 231.964844 186.222656 C 230.710938 186.535156 229.445312 186.820312 228.175781 187.074219 C 226.902344 187.324219 225.628906 187.546875 224.347656 187.738281 C 223.0625 187.925781 221.777344 188.085938 220.488281 188.210938 C 219.199219 188.339844 217.90625 188.433594 216.613281 188.5 C 215.320312 188.5625 214.023438 188.59375 212.730469 188.59375 C 211.433594 188.59375 210.136719 188.5625 208.84375 188.5 C 207.550781 188.433594 206.257812 188.339844 204.96875 188.210938 C 203.679688 188.085938 202.394531 187.925781 201.113281 187.738281 C 199.832031 187.546875 198.554688 187.324219 197.285156 187.074219 C 196.011719 186.820312 194.75 186.535156 193.492188 186.222656 C 192.234375 185.90625 190.988281 185.5625 189.746094 185.183594 C 188.507812 184.808594 187.277344 184.402344 186.058594 183.964844 C 184.835938 183.527344 183.628906 183.0625 182.433594 182.566406 C 181.234375 182.070312 180.050781 181.546875 178.878906 180.992188 C 177.707031 180.4375 176.550781 179.855469 175.410156 179.246094 C 174.265625 178.632812 173.140625 177.996094 172.027344 177.328125 C 170.917969 176.664062 169.820312 175.972656 168.746094 175.25 C 167.667969 174.53125 166.609375 173.785156 165.566406 173.011719 C 164.527344 172.242188 163.503906 171.445312 162.503906 170.621094 C 161.503906 169.800781 160.523438 168.953125 159.5625 168.085938 C 158.601562 167.214844 157.664062 166.320312 156.746094 165.40625 C 155.832031 164.488281 154.9375 163.550781 154.066406 162.589844 C 153.199219 161.632812 152.351562 160.648438 151.53125 159.648438 C 150.707031 158.648438 149.910156 157.625 149.140625 156.585938 C 148.367188 155.542969 147.621094 154.484375 146.902344 153.40625 C 146.183594 152.332031 145.488281 151.238281 144.824219 150.125 C 144.15625 149.015625 143.519531 147.886719 142.90625 146.742188 C 142.296875 145.601562 141.714844 144.445312 141.160156 143.273438 C 140.605469 142.101562 140.082031 140.917969 139.585938 139.71875 C 139.089844 138.523438 138.625 137.316406 138.1875 136.09375 C 137.75 134.875 137.34375 133.644531 136.96875 132.40625 C 136.59375 131.164062 136.246094 129.917969 135.929688 128.660156 C 135.617188 127.402344 135.332031 126.140625 135.082031 124.867188 C 134.828125 123.597656 134.605469 122.320312 134.414062 121.039062 C 134.226562 119.757812 134.066406 118.472656 133.941406 117.183594 C 133.8125 115.894531 133.71875 114.601562 133.65625 113.308594 C 133.589844 112.015625 133.558594 110.71875 133.558594 109.421875 L 133.558594 2.542969 C 133.558594 2.265625 133.507812 2.003906 133.402344 1.75 C 133.296875 1.496094 133.148438 1.269531 132.953125 1.078125 C 132.757812 0.882812 132.535156 0.734375 132.28125 0.628906 C 132.027344 0.523438 131.761719 0.46875 131.488281 0.46875 C 131.214844 0.46875 130.949219 0.523438 130.695312 0.628906 C 130.441406 0.734375 130.21875 0.882812 130.023438 1.078125 C 129.828125 1.269531 129.679688 1.496094 129.574219 1.75 C 129.46875 2.003906 129.417969 2.265625 129.417969 2.542969 L 129.417969 109.421875 C 129.417969 110.785156 129.453125 112.148438 129.523438 113.507812 C 129.589844 114.871094 129.695312 116.230469 129.828125 117.585938 C 129.964844 118.941406 130.132812 120.292969 130.335938 121.640625 C 130.535156 122.988281 130.769531 124.328125 131.039062 125.667969 C 131.304688 127.003906 131.605469 128.332031 131.9375 129.652344 C 132.269531 130.972656 132.636719 132.285156 133.03125 133.589844 C 133.429688 134.894531 133.859375 136.1875 134.316406 137.46875 C 134.777344 138.753906 135.269531 140.023438 135.792969 141.28125 C 136.316406 142.539062 136.867188 143.785156 137.453125 145.015625 C 138.035156 146.25 138.648438 147.464844 139.292969 148.667969 C 139.933594 149.867188 140.605469 151.050781 141.308594 152.222656 C 142.007812 153.390625 142.738281 154.539062 143.496094 155.671875 C 144.253906 156.804688 145.039062 157.917969 145.851562 159.011719 C 146.664062 160.105469 147.503906 161.179688 148.367188 162.234375 C 149.230469 163.285156 150.121094 164.316406 151.039062 165.328125 C 151.953125 166.335938 152.894531 167.324219 153.855469 168.285156 C 154.820312 169.25 155.808594 170.191406 156.816406 171.105469 C 157.828125 172.019531 158.859375 172.910156 159.910156 173.773438 C 160.964844 174.636719 162.039062 175.476562 163.132812 176.289062 C 164.226562 177.101562 165.34375 177.886719 166.476562 178.640625 C 167.609375 179.398438 168.757812 180.128906 169.925781 180.828125 C 171.097656 181.53125 172.28125 182.203125 173.484375 182.84375 C 174.683594 183.488281 175.902344 184.101562 177.132812 184.683594 C 178.363281 185.265625 179.609375 185.820312 180.867188 186.339844 C 182.128906 186.863281 183.398438 187.355469 184.679688 187.8125 C 185.964844 188.273438 187.257812 188.703125 188.5625 189.097656 C 189.863281 189.496094 191.175781 189.859375 192.5 190.191406 C 193.820312 190.523438 195.148438 190.824219 196.484375 191.089844 C 197.824219 191.355469 199.164062 191.589844 200.511719 191.792969 C 201.859375 191.992188 203.210938 192.160156 204.566406 192.296875 C 205.925781 192.429688 207.28125 192.53125 208.644531 192.601562 C 210.003906 192.667969 211.367188 192.703125 212.730469 192.703125 Z M 212.730469 159.929688 C 214.402344 159.925781 216.070312 159.84375 217.738281 159.679688 C 219.402344 159.511719 221.054688 159.265625 222.695312 158.9375 C 224.335938 158.609375 225.957031 158.203125 227.558594 157.714844 C 229.160156 157.230469 230.734375 156.667969 232.28125 156.023438 C 233.824219 155.382812 235.335938 154.667969 236.8125 153.878906 C 238.289062 153.089844 239.722656 152.230469 241.113281 151.300781 C 242.503906 150.371094 243.847656 149.375 245.140625 148.3125 C 246.433594 147.25 247.671875 146.128906 248.855469 144.945312 C 250.039062 143.761719 251.160156 142.523438 252.222656 141.230469 C 253.285156 139.9375 254.28125 138.59375 255.210938 137.203125 C 256.140625 135.8125 257 134.378906 257.792969 132.90625 C 258.582031 131.429688 259.296875 129.917969 259.9375 128.375 C 260.578125 126.828125 261.144531 125.253906 261.628906 123.652344 C 262.117188 122.050781 262.523438 120.429688 262.851562 118.789062 C 263.179688 117.148438 263.429688 115.496094 263.59375 113.832031 C 263.757812 112.164062 263.84375 110.496094 263.84375 108.824219 L 263.84375 2.632812 C 263.84375 2.359375 263.792969 2.09375 263.6875 1.84375 C 263.582031 1.589844 263.433594 1.363281 263.238281 1.171875 C 263.042969 0.976562 262.820312 0.824219 262.566406 0.722656 C 262.3125 0.617188 262.050781 0.5625 261.773438 0.5625 C 261.5 0.5625 261.234375 0.617188 260.980469 0.722656 C 260.726562 0.824219 260.503906 0.976562 260.308594 1.171875 C 260.117188 1.363281 259.964844 1.589844 259.859375 1.84375 C 259.753906 2.09375 259.703125 2.359375 259.703125 2.632812 L 259.703125 108.824219 C 259.679688 110.347656 259.582031 111.867188 259.414062 113.378906 C 259.242188 114.894531 259 116.398438 258.683594 117.886719 C 258.367188 119.378906 257.976562 120.851562 257.519531 122.300781 C 257.058594 123.753906 256.527344 125.183594 255.929688 126.582031 C 255.332031 127.984375 254.664062 129.355469 253.933594 130.691406 C 253.199219 132.027344 252.40625 133.324219 251.546875 134.582031 C 250.6875 135.84375 249.773438 137.058594 248.796875 138.226562 C 247.820312 139.398438 246.789062 140.515625 245.703125 141.585938 C 244.617188 142.65625 243.480469 143.671875 242.296875 144.628906 C 241.113281 145.589844 239.886719 146.488281 238.613281 147.328125 C 237.339844 148.167969 236.03125 148.941406 234.683594 149.65625 C 233.335938 150.367188 231.960938 151.011719 230.550781 151.589844 C 229.140625 152.167969 227.703125 152.675781 226.246094 153.113281 C 224.785156 153.550781 223.308594 153.917969 221.8125 154.214844 C 220.316406 154.507812 218.8125 154.730469 217.296875 154.875 C 215.777344 155.023438 214.257812 155.097656 212.734375 155.097656 C 211.210938 155.097656 209.691406 155.023438 208.171875 154.875 C 206.65625 154.730469 205.152344 154.507812 203.65625 154.214844 C 202.160156 153.917969 200.683594 153.550781 199.222656 153.113281 C 197.765625 152.675781 196.328125 152.167969 194.917969 151.589844 C 193.507812 151.011719 192.132812 150.367188 190.785156 149.65625 C 189.4375 148.941406 188.125 148.167969 186.855469 147.328125 C 185.582031 146.488281 184.355469 145.589844 183.171875 144.628906 C 181.988281 143.671875 180.851562 142.65625 179.765625 141.585938 C 178.679688 140.515625 177.648438 139.398438 176.671875 138.226562 C 175.695312 137.058594 174.78125 135.84375 173.921875 134.582031 C 173.0625 133.324219 172.265625 132.027344 171.535156 130.691406 C 170.804688 129.355469 170.136719 127.984375 169.539062 126.582031 C 168.941406 125.183594 168.410156 123.753906 167.949219 122.300781 C 167.492188 120.851562 167.101562 119.378906 166.785156 117.886719 C 166.46875 116.398438 166.226562 114.894531 166.054688 113.378906 C 165.886719 111.867188 165.789062 110.347656 165.765625 108.824219 L 165.765625 2.632812 C 165.765625 2.359375 165.714844 2.09375 165.609375 1.84375 C 165.503906 1.589844 165.351562 1.363281 165.160156 1.171875 C 164.964844 0.976562 164.742188 0.824219 164.488281 0.722656 C 164.234375 0.617188 163.96875 0.5625 163.695312 0.5625 C 163.417969 0.5625 163.15625 0.617188 162.902344 0.722656 C 162.648438 0.824219 162.425781 0.976562 162.230469 1.171875 C 162.035156 1.363281 161.886719 1.589844 161.78125 1.84375 C 161.675781 2.09375 161.625 2.359375 161.625 2.632812 L 161.625 108.824219 C 161.625 110.496094 161.707031 112.167969 161.875 113.832031 C 162.039062 115.496094 162.285156 117.152344 162.613281 118.792969 C 162.9375 120.433594 163.347656 122.054688 163.832031 123.65625 C 164.320312 125.257812 164.882812 126.832031 165.523438 128.378906 C 166.164062 129.921875 166.878906 131.433594 167.667969 132.910156 C 168.457031 134.386719 169.316406 135.820312 170.246094 137.210938 C 171.179688 138.601562 172.171875 139.945312 173.234375 141.238281 C 174.296875 142.53125 175.417969 143.773438 176.601562 144.957031 C 177.785156 146.140625 179.023438 147.261719 180.316406 148.324219 C 181.609375 149.386719 182.953125 150.382812 184.34375 151.3125 C 185.734375 152.242188 187.167969 153.105469 188.644531 153.894531 C 190.121094 154.683594 191.628906 155.398438 193.175781 156.039062 C 194.722656 156.683594 196.296875 157.246094 197.898438 157.734375 C 199.5 158.222656 201.121094 158.628906 202.761719 158.957031 C 204.402344 159.285156 206.054688 159.53125 207.71875 159.699219 C 209.386719 159.863281 211.054688 159.949219 212.730469 159.949219 Z M 212.730469 159.929688 "/></g></g><mask id="dd1e718a00"><g filter="url(#60e7e10da2)"><rect x="0" width="1440" y="0" height="809.999993" style="fill:#000000;fill-opacity:0.1;stroke:none;"/></g></mask></g><g mask="url(#6464d8a91b)" transform="matrix(1,0,0,1,0,485)"><g clip-path="url(#1b64cb5df5)"><g clip-rule="nonzero" clip-path="url(#1ffb067a3f)"><path style=" stroke:none;fill-rule:nonzero;fill:#2f3e46;fill-opacity:1;" d="M 311.347656 322.84375 L 311.347656 213.226562 C 311.347656 96.203125 216.191406 1.109375 99.222656 1.109375 C -17.746094 1.109375 -112.898438 96.257812 -112.898438 213.226562 L -112.898438 322.84375 C -112.898438 323.117188 -112.84375 323.378906 -112.738281 323.632812 C -112.632812 323.886719 -112.484375 324.113281 -112.289062 324.304688 C -112.097656 324.5 -111.871094 324.648438 -111.617188 324.753906 C -111.363281 324.859375 -111.101562 324.914062 -110.824219 324.914062 C -110.550781 324.914062 -110.285156 324.859375 -110.035156 324.753906 C -109.78125 324.648438 -109.554688 324.5 -109.359375 324.304688 C -109.167969 324.113281 -109.015625 323.886719 -108.914062 323.632812 C -108.808594 323.378906 -108.753906 323.117188 -108.753906 322.84375 L -108.753906 213.226562 C -108.753906 98.546875 -15.460938 5.25 99.222656 5.25 C 213.902344 5.25 307.207031 98.546875 307.207031 213.226562 L 307.207031 322.84375 C 307.207031 323.117188 307.257812 323.378906 307.363281 323.632812 C 307.46875 323.886719 307.621094 324.113281 307.8125 324.304688 C 308.007812 324.5 308.230469 324.648438 308.484375 324.753906 C 308.738281 324.859375 309.003906 324.914062 309.277344 324.914062 C 309.550781 324.914062 309.816406 324.859375 310.070312 324.753906 C 310.324219 324.648438 310.546875 324.5 310.742188 324.304688 C 310.9375 324.113281 311.085938 323.886719 311.191406 323.632812 C 311.296875 323.378906 311.347656 323.117188 311.347656 322.84375 Z M 99.222656 33.914062 C 198.429688 33.914062 279.144531 114.628906 279.144531 213.835938 L 279.144531 322.75 C 279.144531 323.023438 279.089844 323.289062 278.984375 323.542969 C 278.878906 323.796875 278.730469 324.019531 278.535156 324.214844 C 278.34375 324.40625 278.117188 324.558594 277.863281 324.664062 C 277.609375 324.765625 277.347656 324.820312 277.070312 324.820312 C 276.796875 324.820312 276.53125 324.765625 276.277344 324.664062 C 276.023438 324.558594 275.800781 324.40625 275.605469 324.214844 C 275.414062 324.019531 275.261719 323.796875 275.15625 323.542969 C 275.054688 323.289062 275 323.023438 275 322.75 L 275 213.816406 C 275 116.886719 196.152344 38.035156 99.222656 38.035156 C 2.289062 38.035156 -76.546875 116.886719 -76.546875 213.816406 L -76.546875 322.75 C -76.546875 323.023438 -76.601562 323.289062 -76.707031 323.542969 C -76.8125 323.796875 -76.960938 324.019531 -77.15625 324.214844 C -77.347656 324.40625 -77.574219 324.558594 -77.828125 324.664062 C -78.082031 324.765625 -78.34375 324.820312 -78.621094 324.820312 C -78.894531 324.820312 -79.15625 324.765625 -79.410156 324.664062 C -79.664062 324.558594 -79.890625 324.40625 -80.082031 324.214844 C -80.277344 324.019531 -80.425781 323.796875 -80.53125 323.542969 C -80.636719 323.289062 -80.691406 323.023438 -80.691406 322.75 L -80.691406 213.816406 C -80.691406 114.605469 -0.0195312 33.914062 99.222656 33.914062 Z M 99.222656 66.703125 C 180.679688 66.703125 246.945312 132.980469 246.945312 214.417969 L 246.945312 322.644531 C 246.945312 322.917969 246.894531 323.183594 246.789062 323.4375 C 246.683594 323.691406 246.535156 323.914062 246.339844 324.109375 C 246.144531 324.304688 245.921875 324.453125 245.667969 324.558594 C 245.414062 324.664062 245.148438 324.714844 244.875 324.714844 C 244.601562 324.714844 244.335938 324.664062 244.082031 324.558594 C 243.828125 324.453125 243.605469 324.304688 243.410156 324.109375 C 243.214844 323.914062 243.066406 323.691406 242.960938 323.4375 C 242.855469 323.183594 242.804688 322.917969 242.804688 322.644531 L 242.804688 214.394531 C 242.804688 135.226562 178.390625 70.824219 99.222656 70.824219 C 20.050781 70.824219 -44.351562 135.226562 -44.351562 214.394531 L -44.351562 322.644531 C -44.351562 322.917969 -44.40625 323.183594 -44.507812 323.4375 C -44.613281 323.691406 -44.765625 323.914062 -44.957031 324.109375 C -45.152344 324.304688 -45.375 324.453125 -45.628906 324.558594 C -45.882812 324.664062 -46.148438 324.714844 -46.421875 324.714844 C -46.699219 324.714844 -46.960938 324.664062 -47.214844 324.558594 C -47.46875 324.453125 -47.695312 324.304688 -47.886719 324.109375 C -48.082031 323.914062 -48.230469 323.691406 -48.335938 323.4375 C -48.441406 323.183594 -48.496094 322.917969 -48.496094 322.644531 L -48.496094 214.394531 C -48.496094 132.949219 17.773438 66.679688 99.222656 66.679688 Z M 99.222656 99.488281 C 101.109375 99.488281 103 99.539062 104.886719 99.632812 C 106.773438 99.726562 108.65625 99.867188 110.539062 100.054688 C 112.417969 100.242188 114.292969 100.476562 116.164062 100.753906 C 118.03125 101.03125 119.894531 101.355469 121.746094 101.726562 C 123.601562 102.097656 125.441406 102.511719 127.277344 102.972656 C 129.109375 103.433594 130.929688 103.9375 132.738281 104.488281 C 134.542969 105.039062 136.339844 105.632812 138.117188 106.269531 C 139.894531 106.90625 141.660156 107.589844 143.402344 108.3125 C 145.148438 109.035156 146.875 109.804688 148.585938 110.613281 C 150.292969 111.421875 151.980469 112.269531 153.644531 113.160156 C 155.3125 114.054688 156.957031 114.984375 158.578125 115.957031 C 160.195312 116.929688 161.792969 117.941406 163.363281 118.988281 C 164.933594 120.039062 166.480469 121.128906 167.996094 122.253906 C 169.515625 123.378906 171.003906 124.542969 172.464844 125.742188 C 173.925781 126.941406 175.355469 128.175781 176.757812 129.445312 C 178.15625 130.710938 179.523438 132.015625 180.863281 133.351562 C 182.199219 134.6875 183.5 136.054688 184.769531 137.457031 C 186.039062 138.855469 187.273438 140.285156 188.472656 141.746094 C 189.671875 143.207031 190.835938 144.695312 191.960938 146.214844 C 193.085938 147.730469 194.175781 149.277344 195.226562 150.847656 C 196.277344 152.417969 197.289062 154.011719 198.261719 155.632812 C 199.234375 157.253906 200.164062 158.898438 201.054688 160.5625 C 201.949219 162.230469 202.796875 163.917969 203.605469 165.625 C 204.417969 167.332031 205.183594 169.058594 205.90625 170.804688 C 206.632812 172.550781 207.3125 174.3125 207.949219 176.089844 C 208.589844 177.871094 209.183594 179.664062 209.734375 181.472656 C 210.28125 183.277344 210.789062 185.097656 211.25 186.933594 C 211.710938 188.765625 212.125 190.609375 212.496094 192.460938 C 212.867188 194.3125 213.191406 196.175781 213.472656 198.042969 C 213.75 199.914062 213.984375 201.789062 214.171875 203.667969 C 214.359375 205.550781 214.5 207.433594 214.59375 209.320312 C 214.6875 211.207031 214.738281 213.097656 214.738281 214.984375 L 214.738281 322.550781 C 214.738281 322.828125 214.6875 323.089844 214.582031 323.34375 C 214.476562 323.597656 214.328125 323.820312 214.132812 324.015625 C 213.9375 324.210938 213.714844 324.359375 213.460938 324.464844 C 213.207031 324.570312 212.945312 324.625 212.667969 324.625 C 212.394531 324.625 212.128906 324.570312 211.875 324.464844 C 211.621094 324.359375 211.398438 324.210938 211.203125 324.015625 C 211.011719 323.820312 210.859375 323.597656 210.753906 323.34375 C 210.648438 323.089844 210.597656 322.828125 210.597656 322.550781 L 210.597656 214.984375 C 210.617188 213.152344 210.585938 211.320312 210.515625 209.488281 C 210.441406 207.652344 210.324219 205.824219 210.160156 203.996094 C 209.996094 202.171875 209.789062 200.347656 209.535156 198.535156 C 209.28125 196.71875 208.984375 194.90625 208.640625 193.105469 C 208.300781 191.304688 207.914062 189.511719 207.480469 187.730469 C 207.050781 185.945312 206.574219 184.175781 206.058594 182.417969 C 205.539062 180.65625 204.976562 178.914062 204.371094 177.179688 C 203.765625 175.449219 203.121094 173.734375 202.429688 172.035156 C 201.742188 170.335938 201.007812 168.65625 200.238281 166.992188 C 199.464844 165.328125 198.652344 163.683594 197.796875 162.0625 C 196.945312 160.4375 196.050781 158.835938 195.117188 157.257812 C 194.183594 155.679688 193.214844 154.125 192.203125 152.59375 C 191.195312 151.0625 190.148438 149.558594 189.0625 148.078125 C 187.980469 146.597656 186.859375 145.148438 185.703125 143.722656 C 184.546875 142.300781 183.359375 140.90625 182.132812 139.539062 C 180.910156 138.175781 179.652344 136.839844 178.359375 135.539062 C 177.070312 134.234375 175.746094 132.964844 174.394531 131.726562 C 173.042969 130.488281 171.65625 129.285156 170.246094 128.117188 C 168.832031 126.945312 167.390625 125.8125 165.921875 124.714844 C 164.453125 123.617188 162.960938 122.554688 161.4375 121.53125 C 159.917969 120.503906 158.371094 119.519531 156.800781 118.570312 C 155.230469 117.625 153.640625 116.714844 152.023438 115.84375 C 150.410156 114.976562 148.773438 114.148438 147.117188 113.359375 C 145.464844 112.570312 143.789062 111.824219 142.097656 111.117188 C 140.402344 110.410156 138.695312 109.746094 136.96875 109.125 C 135.242188 108.503906 133.503906 107.925781 131.75 107.390625 C 129.996094 106.855469 128.230469 106.363281 126.453125 105.914062 C 124.671875 105.464844 122.882812 105.0625 121.085938 104.703125 C 119.289062 104.34375 117.480469 104.027344 115.667969 103.753906 C 113.855469 103.484375 112.035156 103.257812 110.210938 103.078125 C 108.382812 102.898438 106.554688 102.761719 104.726562 102.671875 C 102.894531 102.582031 101.058594 102.535156 99.226562 102.535156 C 97.390625 102.535156 95.558594 102.582031 93.726562 102.671875 C 91.894531 102.761719 90.066406 102.898438 88.242188 103.078125 C 86.417969 103.257812 84.597656 103.484375 82.785156 103.753906 C 80.96875 104.027344 79.164062 104.34375 77.367188 104.703125 C 75.566406 105.0625 73.78125 105.464844 72 105.914062 C 70.222656 106.363281 68.457031 106.855469 66.703125 107.390625 C 64.949219 107.925781 63.207031 108.503906 61.484375 109.125 C 59.757812 109.746094 58.050781 110.410156 56.355469 111.117188 C 54.664062 111.824219 52.988281 112.570312 51.332031 113.359375 C 49.679688 114.148438 48.042969 114.976562 46.429688 115.84375 C 44.8125 116.714844 43.21875 117.625 41.652344 118.570312 C 40.082031 119.519531 38.535156 120.503906 37.015625 121.53125 C 35.492188 122.554688 33.996094 123.617188 32.527344 124.714844 C 31.058594 125.8125 29.621094 126.945312 28.207031 128.117188 C 26.792969 129.285156 25.410156 130.488281 24.058594 131.726562 C 22.703125 132.964844 21.382812 134.234375 20.09375 135.539062 C 18.800781 136.839844 17.542969 138.175781 16.320312 139.539062 C 15.09375 140.90625 13.90625 142.300781 12.75 143.722656 C 11.59375 145.148438 10.472656 146.597656 9.390625 148.078125 C 8.304688 149.558594 7.257812 151.0625 6.25 152.59375 C 5.238281 154.125 4.269531 155.679688 3.335938 157.257812 C 2.402344 158.835938 1.507812 160.4375 0.65625 162.0625 C -0.199219 163.683594 -1.011719 165.328125 -1.785156 166.992188 C -2.558594 168.65625 -3.289062 170.335938 -3.976562 172.035156 C -4.667969 173.734375 -5.316406 175.449219 -5.917969 177.179688 C -6.523438 178.914062 -7.085938 180.65625 -7.605469 182.417969 C -8.125 184.175781 -8.597656 185.945312 -9.03125 187.730469 C -9.460938 189.511719 -9.847656 191.304688 -10.191406 193.105469 C -10.53125 194.90625 -10.832031 196.71875 -11.082031 198.535156 C -11.335938 200.351562 -11.546875 202.171875 -11.707031 203.996094 C -11.871094 205.824219 -11.988281 207.652344 -12.0625 209.488281 C -12.136719 211.320312 -12.164062 213.152344 -12.144531 214.984375 L -12.144531 322.550781 C -12.144531 322.828125 -12.199219 323.089844 -12.304688 323.34375 C -12.40625 323.597656 -12.558594 323.820312 -12.753906 324.015625 C -12.945312 324.210938 -13.171875 324.359375 -13.425781 324.464844 C -13.675781 324.570312 -13.941406 324.625 -14.214844 324.625 C -14.492188 324.625 -14.753906 324.570312 -15.007812 324.464844 C -15.261719 324.359375 -15.488281 324.210938 -15.679688 324.015625 C -15.875 323.820312 -16.023438 323.597656 -16.128906 323.34375 C -16.234375 323.089844 -16.289062 322.828125 -16.289062 322.550781 L -16.289062 214.984375 C -16.285156 213.097656 -16.238281 211.207031 -16.144531 209.320312 C -16.046875 207.433594 -15.90625 205.546875 -15.71875 203.667969 C -15.535156 201.789062 -15.300781 199.914062 -15.019531 198.042969 C -14.742188 196.175781 -14.417969 194.3125 -14.046875 192.460938 C -13.675781 190.605469 -13.261719 188.761719 -12.800781 186.929688 C -12.339844 185.097656 -11.835938 183.277344 -11.285156 181.46875 C -10.738281 179.660156 -10.144531 177.867188 -9.503906 176.085938 C -8.867188 174.308594 -8.1875 172.546875 -7.460938 170.800781 C -6.738281 169.054688 -5.972656 167.328125 -5.164062 165.621094 C -4.355469 163.910156 -3.503906 162.226562 -2.613281 160.558594 C -1.722656 158.890625 -0.789062 157.25 0.183594 155.628906 C 1.15625 154.007812 2.167969 152.410156 3.214844 150.839844 C 4.265625 149.269531 5.355469 147.722656 6.480469 146.207031 C 7.605469 144.6875 8.769531 143.199219 9.96875 141.738281 C 11.167969 140.277344 12.402344 138.847656 13.671875 137.445312 C 14.941406 136.046875 16.242188 134.679688 17.578125 133.34375 C 18.914062 132.003906 20.285156 130.703125 21.683594 129.433594 C 23.085938 128.164062 24.515625 126.929688 25.976562 125.730469 C 27.4375 124.53125 28.925781 123.367188 30.441406 122.242188 C 31.960938 121.117188 33.503906 120.027344 35.078125 118.976562 C 36.648438 117.925781 38.242188 116.914062 39.863281 115.941406 C 41.484375 114.972656 43.128906 114.039062 44.792969 113.148438 C 46.460938 112.253906 48.148438 111.40625 49.855469 110.597656 C 51.5625 109.789062 53.289062 109.019531 55.035156 108.296875 C 56.78125 107.574219 58.542969 106.890625 60.324219 106.253906 C 62.101562 105.617188 63.894531 105.023438 65.703125 104.472656 C 67.511719 103.921875 69.332031 103.417969 71.164062 102.957031 C 73 102.496094 74.839844 102.078125 76.695312 101.710938 C 78.546875 101.339844 80.410156 101.015625 82.277344 100.734375 C 84.148438 100.457031 86.023438 100.222656 87.902344 100.035156 C 89.785156 99.847656 91.667969 99.707031 93.554688 99.613281 C 95.441406 99.519531 97.332031 99.46875 99.222656 99.46875 Z M 99.222656 132.285156 C 100.585938 132.285156 101.945312 132.320312 103.308594 132.390625 C 104.667969 132.457031 106.027344 132.558594 107.382812 132.695312 C 108.742188 132.828125 110.09375 132.996094 111.441406 133.199219 C 112.789062 133.398438 114.132812 133.632812 115.46875 133.902344 C 116.804688 134.167969 118.132812 134.46875 119.457031 134.800781 C 120.777344 135.132812 122.089844 135.496094 123.394531 135.894531 C 124.699219 136.289062 125.992188 136.71875 127.277344 137.179688 C 128.558594 137.636719 129.828125 138.128906 131.089844 138.652344 C 132.347656 139.171875 133.59375 139.726562 134.824219 140.308594 C 136.058594 140.894531 137.273438 141.507812 138.476562 142.148438 C 139.675781 142.792969 140.863281 143.464844 142.03125 144.164062 C 143.199219 144.867188 144.351562 145.597656 145.484375 146.355469 C 146.617188 147.113281 147.730469 147.894531 148.828125 148.707031 C 149.921875 149.519531 150.996094 150.359375 152.046875 151.222656 C 153.101562 152.089844 154.132812 152.980469 155.144531 153.894531 C 156.152344 154.808594 157.140625 155.75 158.105469 156.714844 C 159.066406 157.675781 160.007812 158.664062 160.921875 159.675781 C 161.839844 160.683594 162.730469 161.714844 163.59375 162.769531 C 164.457031 163.824219 165.296875 164.898438 166.109375 165.992188 C 166.921875 167.085938 167.707031 168.199219 168.464844 169.332031 C 169.222656 170.464844 169.949219 171.617188 170.652344 172.785156 C 171.351562 173.957031 172.027344 175.140625 172.667969 176.34375 C 173.3125 177.542969 173.925781 178.761719 174.507812 179.992188 C 175.089844 181.226562 175.644531 182.46875 176.167969 183.730469 C 176.6875 184.988281 177.179688 186.257812 177.640625 187.542969 C 178.101562 188.824219 178.527344 190.117188 178.925781 191.421875 C 179.320312 192.726562 179.6875 194.039062 180.019531 195.363281 C 180.351562 196.683594 180.648438 198.011719 180.917969 199.351562 C 181.183594 200.6875 181.417969 202.027344 181.621094 203.378906 C 181.820312 204.726562 181.988281 206.078125 182.125 207.433594 C 182.257812 208.789062 182.359375 210.148438 182.429688 211.511719 C 182.496094 212.871094 182.53125 214.234375 182.535156 215.597656 L 182.535156 322.457031 C 182.535156 322.734375 182.480469 322.996094 182.375 323.25 C 182.269531 323.503906 182.121094 323.730469 181.925781 323.921875 C 181.734375 324.117188 181.507812 324.265625 181.253906 324.371094 C 181 324.476562 180.738281 324.53125 180.460938 324.53125 C 180.1875 324.53125 179.921875 324.476562 179.667969 324.371094 C 179.414062 324.265625 179.191406 324.117188 178.996094 323.921875 C 178.804688 323.730469 178.652344 323.503906 178.546875 323.25 C 178.445312 322.996094 178.390625 322.734375 178.390625 322.457031 L 178.390625 215.578125 C 178.390625 214.28125 178.359375 212.984375 178.296875 211.691406 C 178.230469 210.398438 178.136719 209.105469 178.011719 207.816406 C 177.882812 206.527344 177.722656 205.242188 177.535156 203.960938 C 177.34375 202.679688 177.121094 201.402344 176.871094 200.132812 C 176.617188 198.859375 176.332031 197.597656 176.019531 196.339844 C 175.703125 195.082031 175.359375 193.835938 174.980469 192.59375 C 174.605469 191.355469 174.199219 190.125 173.761719 188.90625 C 173.328125 187.683594 172.859375 186.476562 172.363281 185.28125 C 171.867188 184.082031 171.34375 182.898438 170.789062 181.726562 C 170.234375 180.554688 169.652344 179.398438 169.042969 178.257812 C 168.433594 177.113281 167.792969 175.984375 167.128906 174.875 C 166.460938 173.761719 165.769531 172.667969 165.046875 171.59375 C 164.328125 170.515625 163.582031 169.457031 162.8125 168.414062 C 162.039062 167.375 161.242188 166.351562 160.421875 165.351562 C 159.597656 164.351562 158.753906 163.367188 157.882812 162.410156 C 157.011719 161.449219 156.117188 160.511719 155.203125 159.59375 C 154.285156 158.679688 153.347656 157.785156 152.386719 156.914062 C 151.429688 156.046875 150.449219 155.199219 149.445312 154.378906 C 148.445312 153.554688 147.421875 152.757812 146.382812 151.988281 C 145.34375 151.214844 144.28125 150.46875 143.207031 149.75 C 142.128906 149.027344 141.035156 148.335938 139.921875 147.671875 C 138.8125 147.003906 137.683594 146.367188 136.542969 145.753906 C 135.398438 145.144531 134.242188 144.5625 133.070312 144.007812 C 131.898438 143.453125 130.714844 142.929688 129.519531 142.433594 C 128.320312 141.9375 127.113281 141.472656 125.890625 141.035156 C 124.671875 140.597656 123.441406 140.191406 122.203125 139.816406 C 120.964844 139.4375 119.714844 139.09375 118.457031 138.777344 C 117.199219 138.464844 115.9375 138.179688 114.667969 137.925781 C 113.394531 137.675781 112.121094 137.453125 110.835938 137.261719 C 109.554688 137.074219 108.269531 136.914062 106.980469 136.789062 C 105.691406 136.660156 104.398438 136.566406 103.105469 136.5 C 101.8125 136.4375 100.515625 136.40625 99.222656 136.40625 C 97.925781 136.40625 96.628906 136.4375 95.335938 136.5 C 94.042969 136.566406 92.75 136.660156 91.460938 136.789062 C 90.171875 136.914062 88.886719 137.074219 87.605469 137.261719 C 86.324219 137.453125 85.046875 137.675781 83.777344 137.925781 C 82.503906 138.179688 81.242188 138.464844 79.984375 138.777344 C 78.726562 139.09375 77.480469 139.4375 76.238281 139.816406 C 75 140.191406 73.769531 140.597656 72.550781 141.035156 C 71.328125 141.472656 70.121094 141.9375 68.925781 142.433594 C 67.726562 142.929688 66.542969 143.453125 65.371094 144.007812 C 64.199219 144.5625 63.042969 145.144531 61.902344 145.753906 C 60.757812 146.367188 59.628906 147.003906 58.519531 147.671875 C 57.40625 148.335938 56.3125 149.027344 55.238281 149.75 C 54.160156 150.46875 53.101562 151.214844 52.058594 151.988281 C 51.019531 152.757812 49.996094 153.554688 48.996094 154.378906 C 47.996094 155.199219 47.011719 156.046875 46.054688 156.914062 C 45.09375 157.785156 44.15625 158.679688 43.238281 159.59375 C 42.324219 160.511719 41.429688 161.449219 40.558594 162.410156 C 39.691406 163.367188 38.84375 164.351562 38.023438 165.351562 C 37.199219 166.351562 36.402344 167.375 35.632812 168.414062 C 34.859375 169.457031 34.113281 170.515625 33.394531 171.59375 C 32.671875 172.667969 31.980469 173.761719 31.316406 174.875 C 30.648438 175.984375 30.011719 177.113281 29.398438 178.257812 C 28.789062 179.398438 28.207031 180.554688 27.652344 181.726562 C 27.097656 182.898438 26.574219 184.082031 26.078125 185.28125 C 25.582031 186.476562 25.117188 187.683594 24.679688 188.90625 C 24.242188 190.125 23.835938 191.355469 23.460938 192.59375 C 23.082031 193.835938 22.738281 195.082031 22.421875 196.339844 C 22.109375 197.597656 21.824219 198.859375 21.570312 200.132812 C 21.320312 201.402344 21.097656 202.679688 20.90625 203.960938 C 20.71875 205.242188 20.558594 206.527344 20.433594 207.816406 C 20.304688 209.105469 20.210938 210.398438 20.144531 211.691406 C 20.082031 212.984375 20.050781 214.28125 20.050781 215.578125 L 20.050781 322.457031 C 20.050781 322.734375 20 322.996094 19.894531 323.25 C 19.789062 323.503906 19.636719 323.730469 19.445312 323.921875 C 19.25 324.117188 19.027344 324.265625 18.773438 324.371094 C 18.519531 324.476562 18.253906 324.53125 17.980469 324.53125 C 17.703125 324.53125 17.441406 324.476562 17.1875 324.371094 C 16.933594 324.265625 16.710938 324.117188 16.515625 323.921875 C 16.320312 323.730469 16.171875 323.503906 16.066406 323.25 C 15.960938 322.996094 15.910156 322.734375 15.910156 322.457031 L 15.910156 215.578125 C 15.910156 214.214844 15.945312 212.851562 16.015625 211.492188 C 16.082031 210.128906 16.1875 208.769531 16.320312 207.414062 C 16.457031 206.058594 16.625 204.707031 16.828125 203.359375 C 17.027344 202.011719 17.261719 200.671875 17.53125 199.332031 C 17.796875 197.996094 18.097656 196.667969 18.429688 195.347656 C 18.761719 194.027344 19.128906 192.714844 19.523438 191.410156 C 19.921875 190.105469 20.347656 188.8125 20.808594 187.53125 C 21.269531 186.246094 21.761719 184.976562 22.285156 183.71875 C 22.804688 182.460938 23.359375 181.214844 23.941406 179.984375 C 24.527344 178.75 25.140625 177.535156 25.785156 176.332031 C 26.425781 175.132812 27.097656 173.949219 27.800781 172.777344 C 28.5 171.609375 29.230469 170.460938 29.988281 169.328125 C 30.746094 168.195312 31.53125 167.082031 32.34375 165.988281 C 33.15625 164.894531 33.996094 163.820312 34.859375 162.765625 C 35.722656 161.714844 36.613281 160.683594 37.53125 159.671875 C 38.445312 158.664062 39.382812 157.675781 40.347656 156.714844 C 41.3125 155.75 42.300781 154.808594 43.308594 153.894531 C 44.320312 152.980469 45.351562 152.089844 46.402344 151.226562 C 47.457031 150.363281 48.53125 149.523438 49.625 148.710938 C 50.71875 147.898438 51.832031 147.113281 52.964844 146.359375 C 54.101562 145.601562 55.25 144.871094 56.417969 144.171875 C 57.589844 143.46875 58.773438 142.796875 59.976562 142.15625 C 61.175781 141.511719 62.394531 140.898438 63.625 140.316406 C 64.855469 139.734375 66.101562 139.179688 67.359375 138.660156 C 68.617188 138.136719 69.890625 137.644531 71.171875 137.1875 C 72.457031 136.726562 73.75 136.296875 75.050781 135.902344 C 76.355469 135.503906 77.667969 135.140625 78.992188 134.808594 C 80.3125 134.476562 81.640625 134.175781 82.976562 133.910156 C 84.3125 133.644531 85.65625 133.410156 87.003906 133.207031 C 88.351562 133.007812 89.703125 132.839844 91.058594 132.703125 C 92.414062 132.570312 93.773438 132.46875 95.136719 132.398438 C 96.496094 132.332031 97.859375 132.296875 99.222656 132.296875 Z M 99.222656 165.070312 C 100.894531 165.074219 102.5625 165.15625 104.230469 165.320312 C 105.894531 165.488281 107.546875 165.734375 109.1875 166.0625 C 110.828125 166.390625 112.449219 166.796875 114.050781 167.285156 C 115.652344 167.769531 117.226562 168.332031 118.773438 168.976562 C 120.316406 169.617188 121.828125 170.332031 123.304688 171.121094 C 124.78125 171.910156 126.210938 172.769531 127.605469 173.699219 C 128.996094 174.628906 130.335938 175.625 131.632812 176.6875 C 132.925781 177.75 134.164062 178.871094 135.347656 180.054688 C 136.53125 181.238281 137.652344 182.476562 138.714844 183.769531 C 139.777344 185.0625 140.773438 186.40625 141.703125 187.796875 C 142.632812 189.1875 143.492188 190.621094 144.28125 192.09375 C 145.074219 193.570312 145.789062 195.082031 146.429688 196.625 C 147.070312 198.171875 147.636719 199.746094 148.121094 201.347656 C 148.609375 202.949219 149.015625 204.570312 149.34375 206.210938 C 149.671875 207.851562 149.917969 209.503906 150.085938 211.167969 C 150.25 212.835938 150.335938 214.503906 150.335938 216.175781 L 150.335938 322.367188 C 150.335938 322.640625 150.285156 322.90625 150.179688 323.15625 C 150.074219 323.410156 149.925781 323.636719 149.730469 323.828125 C 149.535156 324.023438 149.3125 324.175781 149.058594 324.277344 C 148.804688 324.382812 148.539062 324.4375 148.265625 324.4375 C 147.992188 324.4375 147.726562 324.382812 147.472656 324.277344 C 147.21875 324.175781 146.996094 324.023438 146.800781 323.828125 C 146.605469 323.636719 146.457031 323.410156 146.351562 323.15625 C 146.246094 322.90625 146.195312 322.640625 146.195312 322.367188 L 146.195312 216.175781 C 146.171875 214.652344 146.074219 213.132812 145.90625 211.621094 C 145.734375 210.105469 145.492188 208.601562 145.175781 207.113281 C 144.859375 205.621094 144.46875 204.152344 144.007812 202.699219 C 143.550781 201.246094 143.019531 199.816406 142.421875 198.417969 C 141.824219 197.015625 141.15625 195.644531 140.425781 194.308594 C 139.691406 192.972656 138.898438 191.675781 138.039062 190.417969 C 137.179688 189.15625 136.261719 187.941406 135.285156 186.773438 C 134.308594 185.601562 133.28125 184.484375 132.195312 183.414062 C 131.109375 182.34375 129.972656 181.328125 128.789062 180.371094 C 127.605469 179.410156 126.378906 178.511719 125.105469 177.671875 C 123.832031 176.832031 122.523438 176.058594 121.175781 175.34375 C 119.828125 174.632812 118.449219 173.988281 117.039062 173.410156 C 115.628906 172.832031 114.195312 172.324219 112.738281 171.886719 C 111.277344 171.449219 109.800781 171.082031 108.304688 170.785156 C 106.808594 170.492188 105.304688 170.269531 103.785156 170.125 C 102.269531 169.976562 100.75 169.902344 99.226562 169.902344 C 97.703125 169.902344 96.183594 169.976562 94.664062 170.125 C 93.148438 170.269531 91.644531 170.492188 90.148438 170.785156 C 88.652344 171.082031 87.175781 171.449219 85.714844 171.886719 C 84.257812 172.324219 82.820312 172.832031 81.410156 173.410156 C 80 173.988281 78.621094 174.632812 77.277344 175.34375 C 75.929688 176.058594 74.617188 176.832031 73.347656 177.671875 C 72.074219 178.511719 70.847656 179.410156 69.664062 180.371094 C 68.480469 181.328125 67.34375 182.34375 66.257812 183.414062 C 65.171875 184.484375 64.140625 185.601562 63.164062 186.773438 C 62.1875 187.941406 61.269531 189.15625 60.414062 190.417969 C 59.554688 191.675781 58.757812 192.972656 58.027344 194.308594 C 57.296875 195.644531 56.628906 197.015625 56.03125 198.417969 C 55.433594 199.816406 54.902344 201.246094 54.441406 202.699219 C 53.984375 204.152344 53.59375 205.621094 53.277344 207.113281 C 52.960938 208.601562 52.71875 210.105469 52.546875 211.621094 C 52.375 213.132812 52.28125 214.652344 52.257812 216.175781 L 52.257812 322.367188 C 52.257812 322.640625 52.203125 322.90625 52.101562 323.15625 C 51.996094 323.410156 51.84375 323.636719 51.652344 323.828125 C 51.457031 324.023438 51.234375 324.175781 50.980469 324.277344 C 50.726562 324.382812 50.460938 324.4375 50.1875 324.4375 C 49.910156 324.4375 49.648438 324.382812 49.394531 324.277344 C 49.140625 324.175781 48.914062 324.023438 48.722656 323.828125 C 48.527344 323.636719 48.378906 323.410156 48.273438 323.15625 C 48.167969 322.90625 48.113281 322.640625 48.113281 322.367188 L 48.113281 216.175781 C 48.117188 214.503906 48.199219 212.832031 48.363281 211.167969 C 48.53125 209.503906 48.777344 207.847656 49.105469 206.207031 C 49.429688 204.566406 49.839844 202.945312 50.324219 201.34375 C 50.8125 199.742188 51.375 198.167969 52.015625 196.621094 C 52.65625 195.078125 53.371094 193.566406 54.160156 192.089844 C 54.949219 190.613281 55.808594 189.179688 56.738281 187.789062 C 57.667969 186.398438 58.664062 185.054688 59.726562 183.761719 C 60.789062 182.46875 61.910156 181.226562 63.09375 180.042969 C 64.277344 178.859375 65.515625 177.738281 66.808594 176.675781 C 68.101562 175.613281 69.445312 174.617188 70.835938 173.6875 C 72.226562 172.757812 73.660156 171.894531 75.136719 171.105469 C 76.613281 170.316406 78.121094 169.601562 79.667969 168.960938 C 81.214844 168.316406 82.789062 167.753906 84.390625 167.265625 C 85.988281 166.777344 87.609375 166.371094 89.253906 166.042969 C 90.894531 165.714844 92.546875 165.46875 94.210938 165.300781 C 95.878906 165.136719 97.546875 165.050781 99.222656 165.050781 Z M 99.222656 165.070312 "/></g></g><mask id="6464d8a91b"><g filter="url(#60e7e10da2)"><rect x="0" width="1440" y="0" height="809.999993" style="fill:#000000;fill-opacity:0.1;stroke:none;"/></g></mask></g></g></svg>